%TF.GenerationSoftware,KiCad,Pcbnew,9.0.7*%
%TF.CreationDate,2026-07-03T22:48:02+05:30*%
%TF.ProjectId,Single-Sided 5V Power Supply,53696e67-6c65-42d5-9369-646564203556,rev?*%
%TF.SameCoordinates,Original*%
%TF.FileFunction,Copper,L2,Bot*%
%TF.FilePolarity,Positive*%
%FSLAX46Y46*%
G04 Gerber Fmt 4.6, Leading zero omitted, Abs format (unit mm)*
G04 Created by KiCad (PCBNEW 9.0.7) date 2026-07-03 22:48:02*
%MOMM*%
%LPD*%
G01*
G04 APERTURE LIST*
G04 Aperture macros list*
%AMRoundRect*
0 Rectangle with rounded corners*
0 $1 Rounding radius*
0 $2 $3 $4 $5 $6 $7 $8 $9 X,Y pos of 4 corners*
0 Add a 4 corners polygon primitive as box body*
4,1,4,$2,$3,$4,$5,$6,$7,$8,$9,$2,$3,0*
0 Add four circle primitives for the rounded corners*
1,1,$1+$1,$2,$3*
1,1,$1+$1,$4,$5*
1,1,$1+$1,$6,$7*
1,1,$1+$1,$8,$9*
0 Add four rect primitives between the rounded corners*
20,1,$1+$1,$2,$3,$4,$5,0*
20,1,$1+$1,$4,$5,$6,$7,0*
20,1,$1+$1,$6,$7,$8,$9,0*
20,1,$1+$1,$8,$9,$2,$3,0*%
G04 Aperture macros list end*
%TA.AperFunction,ComponentPad*%
%ADD10RoundRect,0.250000X-1.050000X-1.050000X1.050000X-1.050000X1.050000X1.050000X-1.050000X1.050000X0*%
%TD*%
%TA.AperFunction,ComponentPad*%
%ADD11C,2.600000*%
%TD*%
%TA.AperFunction,ComponentPad*%
%ADD12R,1.905000X2.000000*%
%TD*%
%TA.AperFunction,ComponentPad*%
%ADD13O,1.905000X2.000000*%
%TD*%
%TA.AperFunction,ComponentPad*%
%ADD14R,2.000000X2.000000*%
%TD*%
%TA.AperFunction,ComponentPad*%
%ADD15O,2.000000X2.000000*%
%TD*%
%TA.AperFunction,ComponentPad*%
%ADD16C,1.600000*%
%TD*%
%TA.AperFunction,ComponentPad*%
%ADD17RoundRect,0.250000X-0.750000X-0.750000X0.750000X-0.750000X0.750000X0.750000X-0.750000X0.750000X0*%
%TD*%
%TA.AperFunction,ComponentPad*%
%ADD18C,2.000000*%
%TD*%
%TA.AperFunction,Conductor*%
%ADD19C,0.200000*%
%TD*%
G04 APERTURE END LIST*
D10*
%TO.P,J1,1,Pin_1*%
%TO.N,/J1_3*%
X137000000Y-86000000D03*
D11*
%TO.P,J1,2,Pin_2*%
%TO.N,/J1_2*%
X142080000Y-86000000D03*
%TD*%
D12*
%TO.P,U1,1,IN*%
%TO.N,/D1+*%
X136460000Y-111950000D03*
D13*
%TO.P,U1,2,GND*%
%TO.N,GND*%
X139000000Y-111950000D03*
%TO.P,U1,3,OUT*%
%TO.N,/J2_1*%
X141540000Y-111950000D03*
%TD*%
D10*
%TO.P,J2,1,Pin_1*%
%TO.N,/J2_1*%
X137000000Y-100000000D03*
D11*
%TO.P,J2,2,Pin_2*%
%TO.N,GND*%
X142080000Y-100000000D03*
%TD*%
D14*
%TO.P,D1,1,+*%
%TO.N,/D1+*%
X152000000Y-83000000D03*
D15*
%TO.P,D1,2*%
%TO.N,/J1_2*%
X152000000Y-88000000D03*
%TO.P,D1,3*%
%TO.N,/J1_3*%
X157000000Y-88000000D03*
%TO.P,D1,4,-*%
%TO.N,GND*%
X157000000Y-83000000D03*
%TD*%
D16*
%TO.P,C3,1*%
%TO.N,/J2_1*%
X152000000Y-112000000D03*
%TO.P,C3,2*%
%TO.N,GND*%
X157000000Y-112000000D03*
%TD*%
%TO.P,C2,1*%
%TO.N,/D1+*%
X152000000Y-107000000D03*
%TO.P,C2,2*%
%TO.N,GND*%
X157000000Y-107000000D03*
%TD*%
D17*
%TO.P,C1,1*%
%TO.N,/D1+*%
X152000000Y-98000000D03*
D18*
%TO.P,C1,2*%
%TO.N,GND*%
X157000000Y-98000000D03*
%TD*%
D19*
%TO.N,/D1+*%
X157406207Y-102406207D02*
G75*
G02*
X159000011Y-106253963I-3847807J-3847793D01*
G01*
X153353553Y-98353553D02*
G75*
G03*
X152500000Y-97999998I-853553J-853547D01*
G01*
X159000000Y-107000001D02*
G75*
G02*
X157000001Y-109000000I-2000000J1D01*
G01*
X152000000Y-97500000D02*
G75*
G03*
X152500000Y-98000000I500000J0D01*
G01*
X153000000Y-108000000D02*
G75*
G03*
X155414213Y-108999994I2414200J2414200D01*
G01*
X157406207Y-102406207D02*
X153353553Y-98353553D01*
X159000000Y-106253963D02*
X159000000Y-107000001D01*
X157000001Y-109000000D02*
X155414213Y-109000000D01*
X153000000Y-108000000D02*
X152000000Y-107000000D01*
X152707106Y-85707106D02*
G75*
G02*
X151999996Y-84000000I1707094J1707106D01*
G01*
X152792893Y-90207106D02*
G75*
G03*
X152000012Y-92121321I1914207J-1914194D01*
G01*
X153585787Y-86585787D02*
G75*
G02*
X153585788Y-89414213I-1414187J-1414213D01*
G01*
X153585787Y-89414212D02*
X152792893Y-90207106D01*
X152000000Y-97500000D02*
X152000000Y-92121321D01*
X152707106Y-85707106D02*
X153585787Y-86585787D01*
X152000000Y-84000000D02*
X152000000Y-83000000D01*
%TO.N,GND*%
X147746036Y-100000000D02*
X142080000Y-100000000D01*
X151593792Y-101593792D02*
X157000000Y-107000000D01*
X147746036Y-100000000D02*
G75*
G02*
X151593784Y-101593800I-36J-5441600D01*
G01*
%TO.N,/D1+*%
X143663963Y-107000000D02*
X152000000Y-107000000D01*
X139816207Y-108593792D02*
X136460000Y-111950000D01*
X143663963Y-107000000D02*
G75*
G03*
X139816236Y-108593821I37J-5441500D01*
G01*
%TD*%
M02*
