%TF.GenerationSoftware,KiCad,Pcbnew,9.0.7*%
%TF.CreationDate,2026-07-03T22:48:02+05:30*%
%TF.ProjectId,Single-Sided 5V Power Supply,53696e67-6c65-42d5-9369-646564203556,rev?*%
%TF.SameCoordinates,Original*%
%TF.FileFunction,Legend,Top*%
%TF.FilePolarity,Positive*%
%FSLAX46Y46*%
G04 Gerber Fmt 4.6, Leading zero omitted, Abs format (unit mm)*
G04 Created by KiCad (PCBNEW 9.0.7) date 2026-07-03 22:48:02*
%MOMM*%
%LPD*%
G01*
G04 APERTURE LIST*
%ADD10C,0.150000*%
%ADD11C,0.000000*%
%ADD12C,0.120000*%
G04 APERTURE END LIST*
D10*
X139206666Y-79134819D02*
X139206666Y-79849104D01*
X139206666Y-79849104D02*
X139159047Y-79991961D01*
X139159047Y-79991961D02*
X139063809Y-80087200D01*
X139063809Y-80087200D02*
X138920952Y-80134819D01*
X138920952Y-80134819D02*
X138825714Y-80134819D01*
X140206666Y-80134819D02*
X139635238Y-80134819D01*
X139920952Y-80134819D02*
X139920952Y-79134819D01*
X139920952Y-79134819D02*
X139825714Y-79277676D01*
X139825714Y-79277676D02*
X139730476Y-79372914D01*
X139730476Y-79372914D02*
X139635238Y-79420533D01*
X138238095Y-107304819D02*
X138238095Y-108114342D01*
X138238095Y-108114342D02*
X138285714Y-108209580D01*
X138285714Y-108209580D02*
X138333333Y-108257200D01*
X138333333Y-108257200D02*
X138428571Y-108304819D01*
X138428571Y-108304819D02*
X138619047Y-108304819D01*
X138619047Y-108304819D02*
X138714285Y-108257200D01*
X138714285Y-108257200D02*
X138761904Y-108209580D01*
X138761904Y-108209580D02*
X138809523Y-108114342D01*
X138809523Y-108114342D02*
X138809523Y-107304819D01*
X139809523Y-108304819D02*
X139238095Y-108304819D01*
X139523809Y-108304819D02*
X139523809Y-107304819D01*
X139523809Y-107304819D02*
X139428571Y-107447676D01*
X139428571Y-107447676D02*
X139333333Y-107542914D01*
X139333333Y-107542914D02*
X139238095Y-107590533D01*
X139206666Y-93134819D02*
X139206666Y-93849104D01*
X139206666Y-93849104D02*
X139159047Y-93991961D01*
X139159047Y-93991961D02*
X139063809Y-94087200D01*
X139063809Y-94087200D02*
X138920952Y-94134819D01*
X138920952Y-94134819D02*
X138825714Y-94134819D01*
X139635238Y-93230057D02*
X139682857Y-93182438D01*
X139682857Y-93182438D02*
X139778095Y-93134819D01*
X139778095Y-93134819D02*
X140016190Y-93134819D01*
X140016190Y-93134819D02*
X140111428Y-93182438D01*
X140111428Y-93182438D02*
X140159047Y-93230057D01*
X140159047Y-93230057D02*
X140206666Y-93325295D01*
X140206666Y-93325295D02*
X140206666Y-93420533D01*
X140206666Y-93420533D02*
X140159047Y-93563390D01*
X140159047Y-93563390D02*
X139587619Y-94134819D01*
X139587619Y-94134819D02*
X140206666Y-94134819D01*
X153801905Y-80660819D02*
X153801905Y-79660819D01*
X153801905Y-79660819D02*
X154040000Y-79660819D01*
X154040000Y-79660819D02*
X154182857Y-79708438D01*
X154182857Y-79708438D02*
X154278095Y-79803676D01*
X154278095Y-79803676D02*
X154325714Y-79898914D01*
X154325714Y-79898914D02*
X154373333Y-80089390D01*
X154373333Y-80089390D02*
X154373333Y-80232247D01*
X154373333Y-80232247D02*
X154325714Y-80422723D01*
X154325714Y-80422723D02*
X154278095Y-80517961D01*
X154278095Y-80517961D02*
X154182857Y-80613200D01*
X154182857Y-80613200D02*
X154040000Y-80660819D01*
X154040000Y-80660819D02*
X153801905Y-80660819D01*
X155325714Y-80660819D02*
X154754286Y-80660819D01*
X155040000Y-80660819D02*
X155040000Y-79660819D01*
X155040000Y-79660819D02*
X154944762Y-79803676D01*
X154944762Y-79803676D02*
X154849524Y-79898914D01*
X154849524Y-79898914D02*
X154754286Y-79946533D01*
X154333333Y-109859580D02*
X154285714Y-109907200D01*
X154285714Y-109907200D02*
X154142857Y-109954819D01*
X154142857Y-109954819D02*
X154047619Y-109954819D01*
X154047619Y-109954819D02*
X153904762Y-109907200D01*
X153904762Y-109907200D02*
X153809524Y-109811961D01*
X153809524Y-109811961D02*
X153761905Y-109716723D01*
X153761905Y-109716723D02*
X153714286Y-109526247D01*
X153714286Y-109526247D02*
X153714286Y-109383390D01*
X153714286Y-109383390D02*
X153761905Y-109192914D01*
X153761905Y-109192914D02*
X153809524Y-109097676D01*
X153809524Y-109097676D02*
X153904762Y-109002438D01*
X153904762Y-109002438D02*
X154047619Y-108954819D01*
X154047619Y-108954819D02*
X154142857Y-108954819D01*
X154142857Y-108954819D02*
X154285714Y-109002438D01*
X154285714Y-109002438D02*
X154333333Y-109050057D01*
X154666667Y-108954819D02*
X155285714Y-108954819D01*
X155285714Y-108954819D02*
X154952381Y-109335771D01*
X154952381Y-109335771D02*
X155095238Y-109335771D01*
X155095238Y-109335771D02*
X155190476Y-109383390D01*
X155190476Y-109383390D02*
X155238095Y-109431009D01*
X155238095Y-109431009D02*
X155285714Y-109526247D01*
X155285714Y-109526247D02*
X155285714Y-109764342D01*
X155285714Y-109764342D02*
X155238095Y-109859580D01*
X155238095Y-109859580D02*
X155190476Y-109907200D01*
X155190476Y-109907200D02*
X155095238Y-109954819D01*
X155095238Y-109954819D02*
X154809524Y-109954819D01*
X154809524Y-109954819D02*
X154714286Y-109907200D01*
X154714286Y-109907200D02*
X154666667Y-109859580D01*
X154333333Y-104859580D02*
X154285714Y-104907200D01*
X154285714Y-104907200D02*
X154142857Y-104954819D01*
X154142857Y-104954819D02*
X154047619Y-104954819D01*
X154047619Y-104954819D02*
X153904762Y-104907200D01*
X153904762Y-104907200D02*
X153809524Y-104811961D01*
X153809524Y-104811961D02*
X153761905Y-104716723D01*
X153761905Y-104716723D02*
X153714286Y-104526247D01*
X153714286Y-104526247D02*
X153714286Y-104383390D01*
X153714286Y-104383390D02*
X153761905Y-104192914D01*
X153761905Y-104192914D02*
X153809524Y-104097676D01*
X153809524Y-104097676D02*
X153904762Y-104002438D01*
X153904762Y-104002438D02*
X154047619Y-103954819D01*
X154047619Y-103954819D02*
X154142857Y-103954819D01*
X154142857Y-103954819D02*
X154285714Y-104002438D01*
X154285714Y-104002438D02*
X154333333Y-104050057D01*
X154714286Y-104050057D02*
X154761905Y-104002438D01*
X154761905Y-104002438D02*
X154857143Y-103954819D01*
X154857143Y-103954819D02*
X155095238Y-103954819D01*
X155095238Y-103954819D02*
X155190476Y-104002438D01*
X155190476Y-104002438D02*
X155238095Y-104050057D01*
X155238095Y-104050057D02*
X155285714Y-104145295D01*
X155285714Y-104145295D02*
X155285714Y-104240533D01*
X155285714Y-104240533D02*
X155238095Y-104383390D01*
X155238095Y-104383390D02*
X154666667Y-104954819D01*
X154666667Y-104954819D02*
X155285714Y-104954819D01*
X154333333Y-92109580D02*
X154285714Y-92157200D01*
X154285714Y-92157200D02*
X154142857Y-92204819D01*
X154142857Y-92204819D02*
X154047619Y-92204819D01*
X154047619Y-92204819D02*
X153904762Y-92157200D01*
X153904762Y-92157200D02*
X153809524Y-92061961D01*
X153809524Y-92061961D02*
X153761905Y-91966723D01*
X153761905Y-91966723D02*
X153714286Y-91776247D01*
X153714286Y-91776247D02*
X153714286Y-91633390D01*
X153714286Y-91633390D02*
X153761905Y-91442914D01*
X153761905Y-91442914D02*
X153809524Y-91347676D01*
X153809524Y-91347676D02*
X153904762Y-91252438D01*
X153904762Y-91252438D02*
X154047619Y-91204819D01*
X154047619Y-91204819D02*
X154142857Y-91204819D01*
X154142857Y-91204819D02*
X154285714Y-91252438D01*
X154285714Y-91252438D02*
X154333333Y-91300057D01*
X155285714Y-92204819D02*
X154714286Y-92204819D01*
X155000000Y-92204819D02*
X155000000Y-91204819D01*
X155000000Y-91204819D02*
X154904762Y-91347676D01*
X154904762Y-91347676D02*
X154809524Y-91442914D01*
X154809524Y-91442914D02*
X154714286Y-91490533D01*
D11*
%TO.C,G\u002A\u002A\u002A*%
G36*
X161898926Y-113519198D02*
G01*
X161898028Y-113556682D01*
X161727867Y-113558277D01*
X161557706Y-113559872D01*
X161656089Y-113652253D01*
X161684187Y-113678625D01*
X161708006Y-113700982D01*
X161727896Y-113719694D01*
X161744209Y-113735136D01*
X161757297Y-113747678D01*
X161767512Y-113757693D01*
X161775204Y-113765554D01*
X161780726Y-113771632D01*
X161784429Y-113776300D01*
X161786665Y-113779930D01*
X161787785Y-113782895D01*
X161788141Y-113785565D01*
X161788085Y-113788315D01*
X161787969Y-113791515D01*
X161787967Y-113791862D01*
X161787511Y-113800260D01*
X161785379Y-113806542D01*
X161780433Y-113812833D01*
X161772814Y-113820092D01*
X161761564Y-113830419D01*
X161747521Y-113843444D01*
X161731230Y-113858650D01*
X161713235Y-113875522D01*
X161694080Y-113893543D01*
X161674310Y-113912197D01*
X161654470Y-113930968D01*
X161635103Y-113949339D01*
X161616753Y-113966796D01*
X161599966Y-113982821D01*
X161585286Y-113996898D01*
X161573257Y-114008511D01*
X161564422Y-114017145D01*
X161559328Y-114022282D01*
X161558277Y-114023515D01*
X161561370Y-114023918D01*
X161570258Y-114024295D01*
X161584355Y-114024640D01*
X161603077Y-114024946D01*
X161625838Y-114025204D01*
X161652053Y-114025409D01*
X161681136Y-114025552D01*
X161712503Y-114025626D01*
X161728153Y-114025635D01*
X161898028Y-114025635D01*
X161898926Y-114063119D01*
X161899825Y-114100603D01*
X161671210Y-114100603D01*
X161442595Y-114100603D01*
X161444169Y-114067904D01*
X161445222Y-114053154D01*
X161446779Y-114039998D01*
X161448592Y-114030267D01*
X161449723Y-114026786D01*
X161451691Y-114023862D01*
X161455801Y-114019075D01*
X161462304Y-114012183D01*
X161471447Y-114002947D01*
X161483480Y-113991128D01*
X161498652Y-113976485D01*
X161517212Y-113958778D01*
X161539409Y-113937768D01*
X161565492Y-113913214D01*
X161595710Y-113884877D01*
X161630311Y-113852516D01*
X161639423Y-113844005D01*
X161654830Y-113829523D01*
X161668545Y-113816452D01*
X161679918Y-113805426D01*
X161688298Y-113797080D01*
X161693035Y-113792048D01*
X161693858Y-113790884D01*
X161691594Y-113788328D01*
X161685094Y-113781844D01*
X161674795Y-113771848D01*
X161661132Y-113758755D01*
X161644543Y-113742983D01*
X161625464Y-113724947D01*
X161604331Y-113705062D01*
X161581582Y-113683747D01*
X161573925Y-113676591D01*
X161550552Y-113654670D01*
X161528525Y-113633831D01*
X161508301Y-113614520D01*
X161490339Y-113597184D01*
X161475098Y-113582269D01*
X161463037Y-113570221D01*
X161454613Y-113561486D01*
X161450285Y-113556511D01*
X161449867Y-113555848D01*
X161447955Y-113548972D01*
X161446162Y-113537570D01*
X161444742Y-113523494D01*
X161444169Y-113514413D01*
X161442595Y-113481714D01*
X161671210Y-113481714D01*
X161899825Y-113481714D01*
X161898926Y-113519198D01*
G37*
G36*
X161728152Y-113287884D02*
G01*
X161898028Y-113288709D01*
X161898926Y-113326194D01*
X161899825Y-113363678D01*
X161729051Y-113363678D01*
X161558276Y-113363678D01*
X161558276Y-113325368D01*
X161558276Y-113287058D01*
X161728152Y-113287884D01*
G37*
G36*
X161898926Y-112573317D02*
G01*
X161899825Y-112610802D01*
X161788866Y-112610820D01*
X161759563Y-112610919D01*
X161733047Y-112611194D01*
X161709982Y-112611629D01*
X161691031Y-112612205D01*
X161676859Y-112612905D01*
X161668127Y-112613711D01*
X161666258Y-112614073D01*
X161654722Y-112619910D01*
X161643386Y-112630009D01*
X161634037Y-112642451D01*
X161628690Y-112654441D01*
X161627642Y-112661405D01*
X161626730Y-112673625D01*
X161626003Y-112689976D01*
X161625507Y-112709336D01*
X161625293Y-112730580D01*
X161625287Y-112734067D01*
X161625333Y-112756845D01*
X161625528Y-112774115D01*
X161625936Y-112786750D01*
X161626624Y-112795621D01*
X161627658Y-112801600D01*
X161629102Y-112805560D01*
X161630852Y-112808172D01*
X161632392Y-112809820D01*
X161634390Y-112811176D01*
X161637445Y-112812274D01*
X161642158Y-112813147D01*
X161649130Y-112813828D01*
X161658961Y-112814350D01*
X161672250Y-112814746D01*
X161689599Y-112815049D01*
X161711606Y-112815293D01*
X161738874Y-112815510D01*
X161767231Y-112815703D01*
X161898028Y-112816567D01*
X161898925Y-112853904D01*
X161899823Y-112891241D01*
X161782485Y-112892186D01*
X161752002Y-112892442D01*
X161727232Y-112892697D01*
X161707507Y-112892994D01*
X161692160Y-112893372D01*
X161680522Y-112893875D01*
X161671927Y-112894541D01*
X161665706Y-112895415D01*
X161661192Y-112896535D01*
X161657718Y-112897945D01*
X161654615Y-112899684D01*
X161653859Y-112900151D01*
X161645222Y-112907412D01*
X161637033Y-112917246D01*
X161634719Y-112920887D01*
X161632208Y-112925492D01*
X161630284Y-112930016D01*
X161628854Y-112935372D01*
X161627826Y-112942474D01*
X161627107Y-112952236D01*
X161626605Y-112965570D01*
X161626228Y-112983389D01*
X161625884Y-113006608D01*
X161625857Y-113008563D01*
X161625558Y-113032184D01*
X161625428Y-113050261D01*
X161625524Y-113063631D01*
X161625903Y-113073127D01*
X161626625Y-113079586D01*
X161627747Y-113083844D01*
X161629326Y-113086735D01*
X161631421Y-113089096D01*
X161631440Y-113089114D01*
X161633237Y-113090743D01*
X161635463Y-113092078D01*
X161638724Y-113093149D01*
X161643623Y-113093986D01*
X161650766Y-113094617D01*
X161660758Y-113095071D01*
X161674203Y-113095377D01*
X161691707Y-113095565D01*
X161713874Y-113095663D01*
X161741309Y-113095700D01*
X161768827Y-113095705D01*
X161899623Y-113095705D01*
X161899623Y-113133987D01*
X161899623Y-113172269D01*
X161728818Y-113172269D01*
X161558013Y-113172269D01*
X161558942Y-113038689D01*
X161559871Y-112905110D01*
X161571792Y-112881885D01*
X161583712Y-112858659D01*
X161570994Y-112844862D01*
X161558276Y-112831065D01*
X161558276Y-112735625D01*
X161558310Y-112707887D01*
X161558441Y-112685698D01*
X161558714Y-112668225D01*
X161559176Y-112654638D01*
X161559872Y-112644103D01*
X161560847Y-112635790D01*
X161562147Y-112628867D01*
X161563817Y-112622502D01*
X161564604Y-112619911D01*
X161575007Y-112596196D01*
X161590122Y-112575151D01*
X161608942Y-112557819D01*
X161630455Y-112545241D01*
X161640635Y-112541443D01*
X161646018Y-112539970D01*
X161652147Y-112538775D01*
X161659717Y-112537831D01*
X161669419Y-112537108D01*
X161681949Y-112536579D01*
X161698000Y-112536215D01*
X161718264Y-112535988D01*
X161743437Y-112535871D01*
X161774212Y-112535834D01*
X161778397Y-112535833D01*
X161898028Y-112535833D01*
X161898926Y-112573317D01*
G37*
G36*
X161763340Y-111906054D02*
G01*
X161778791Y-111906409D01*
X161790858Y-111907147D01*
X161800536Y-111908313D01*
X161808823Y-111909951D01*
X161810704Y-111910416D01*
X161836345Y-111920011D01*
X161858050Y-111934619D01*
X161875751Y-111954179D01*
X161889380Y-111978631D01*
X161890724Y-111981855D01*
X161892374Y-111986061D01*
X161893755Y-111990185D01*
X161894895Y-111994811D01*
X161895818Y-112000524D01*
X161896551Y-112007908D01*
X161897120Y-112017546D01*
X161897550Y-112030023D01*
X161897868Y-112045924D01*
X161898100Y-112065833D01*
X161898271Y-112090334D01*
X161898408Y-112120011D01*
X161898537Y-112155448D01*
X161898545Y-112157800D01*
X161898598Y-112189416D01*
X161898544Y-112219459D01*
X161898389Y-112247253D01*
X161898144Y-112272119D01*
X161897816Y-112293380D01*
X161897414Y-112310359D01*
X161896946Y-112322379D01*
X161896422Y-112328762D01*
X161896368Y-112329057D01*
X161888096Y-112354138D01*
X161874383Y-112376738D01*
X161855979Y-112395913D01*
X161833635Y-112410719D01*
X161829998Y-112412501D01*
X161811894Y-112420988D01*
X161727918Y-112420988D01*
X161727287Y-112420988D01*
X161642681Y-112420988D01*
X161621558Y-112410589D01*
X161599263Y-112396507D01*
X161581597Y-112378275D01*
X161568278Y-112355972D01*
X161559871Y-112338044D01*
X161559871Y-112164180D01*
X161559871Y-112024817D01*
X161625270Y-112024817D01*
X161625340Y-112163885D01*
X161625373Y-112197548D01*
X161625450Y-112225442D01*
X161625597Y-112248179D01*
X161625837Y-112266369D01*
X161626195Y-112280625D01*
X161626694Y-112291556D01*
X161627358Y-112299774D01*
X161628212Y-112305892D01*
X161629281Y-112310519D01*
X161630587Y-112314267D01*
X161631348Y-112316028D01*
X161637718Y-112326268D01*
X161646039Y-112335208D01*
X161648026Y-112336764D01*
X161651745Y-112339279D01*
X161655508Y-112341172D01*
X161660233Y-112342533D01*
X161666838Y-112343449D01*
X161676241Y-112344008D01*
X161689359Y-112344298D01*
X161707110Y-112344408D01*
X161727918Y-112344424D01*
X161752258Y-112344372D01*
X161771120Y-112344064D01*
X161785409Y-112343270D01*
X161796028Y-112341763D01*
X161803881Y-112339312D01*
X161809869Y-112335690D01*
X161814898Y-112330668D01*
X161819869Y-112324017D01*
X161822262Y-112320530D01*
X161829439Y-112309984D01*
X161829439Y-112166583D01*
X161829418Y-112132061D01*
X161829339Y-112103336D01*
X161829185Y-112079826D01*
X161828934Y-112060950D01*
X161828568Y-112046124D01*
X161828066Y-112034767D01*
X161827408Y-112026295D01*
X161826576Y-112020127D01*
X161825549Y-112015679D01*
X161824307Y-112012371D01*
X161824205Y-112012153D01*
X161818134Y-112002969D01*
X161809710Y-111994155D01*
X161807715Y-111992529D01*
X161803760Y-111989615D01*
X161799952Y-111987435D01*
X161795324Y-111985864D01*
X161788910Y-111984782D01*
X161779743Y-111984064D01*
X161766857Y-111983589D01*
X161749285Y-111983234D01*
X161732398Y-111982972D01*
X161710556Y-111982673D01*
X161694080Y-111982580D01*
X161681957Y-111982778D01*
X161673173Y-111983352D01*
X161666715Y-111984388D01*
X161661569Y-111985969D01*
X161656723Y-111988180D01*
X161654149Y-111989521D01*
X161640435Y-111999788D01*
X161632616Y-112010925D01*
X161625270Y-112024817D01*
X161559871Y-112024817D01*
X161559871Y-111990317D01*
X161568738Y-111972262D01*
X161583381Y-111949314D01*
X161602618Y-111930786D01*
X161624764Y-111917437D01*
X161646006Y-111907373D01*
X161718295Y-111906318D01*
X161743507Y-111906038D01*
X161763340Y-111906054D01*
G37*
G36*
X161502879Y-113288475D02*
G01*
X161509072Y-113292190D01*
X161512267Y-113299375D01*
X161513451Y-113311059D01*
X161513614Y-113324870D01*
X161513193Y-113341841D01*
X161511967Y-113353602D01*
X161509998Y-113359610D01*
X161509786Y-113359850D01*
X161504369Y-113361912D01*
X161493535Y-113363226D01*
X161478523Y-113363678D01*
X161463276Y-113363210D01*
X161452530Y-113361881D01*
X161447259Y-113359850D01*
X161445225Y-113354385D01*
X161443931Y-113343119D01*
X161443434Y-113326594D01*
X161443431Y-113324870D01*
X161443587Y-113309169D01*
X161444733Y-113298732D01*
X161447883Y-113292441D01*
X161454053Y-113289182D01*
X161464258Y-113287837D01*
X161477546Y-113287345D01*
X161492700Y-113287203D01*
X161502879Y-113288475D01*
G37*
G36*
X160194274Y-112133058D02*
G01*
X160210991Y-112138889D01*
X160218801Y-112143374D01*
X160223951Y-112147853D01*
X160232457Y-112156524D01*
X160243637Y-112168635D01*
X160256810Y-112183435D01*
X160271296Y-112200175D01*
X160284490Y-112215795D01*
X160315075Y-112252400D01*
X160343879Y-112286822D01*
X160371342Y-112319584D01*
X160397909Y-112351207D01*
X160424020Y-112382212D01*
X160450119Y-112413122D01*
X160476648Y-112444456D01*
X160504049Y-112476739D01*
X160532765Y-112510489D01*
X160563237Y-112546231D01*
X160595909Y-112584484D01*
X160631223Y-112625770D01*
X160669622Y-112670611D01*
X160711547Y-112719529D01*
X160731571Y-112742883D01*
X160758911Y-112774825D01*
X160785114Y-112805556D01*
X160809872Y-112834709D01*
X160832879Y-112861918D01*
X160853827Y-112886813D01*
X160872409Y-112909030D01*
X160888317Y-112928199D01*
X160901244Y-112943955D01*
X160910884Y-112955929D01*
X160916928Y-112963755D01*
X160919017Y-112966889D01*
X160922447Y-112980755D01*
X160923203Y-112997479D01*
X160921363Y-113014163D01*
X160917385Y-113027117D01*
X160914366Y-113031590D01*
X160907514Y-113040472D01*
X160897173Y-113053349D01*
X160883688Y-113069806D01*
X160867403Y-113089431D01*
X160848665Y-113111808D01*
X160827817Y-113136526D01*
X160805204Y-113163169D01*
X160781171Y-113191325D01*
X160759201Y-113216931D01*
X160711300Y-113272632D01*
X160667408Y-113323679D01*
X160627373Y-113370252D01*
X160591039Y-113412531D01*
X160558254Y-113450695D01*
X160528863Y-113484926D01*
X160502711Y-113515402D01*
X160479646Y-113542304D01*
X160459512Y-113565812D01*
X160442156Y-113586105D01*
X160427423Y-113603364D01*
X160415161Y-113617769D01*
X160405214Y-113629499D01*
X160397428Y-113638735D01*
X160391650Y-113645657D01*
X160387726Y-113650444D01*
X160385501Y-113653276D01*
X160384832Y-113654278D01*
X160387823Y-113654686D01*
X160396920Y-113655070D01*
X160411852Y-113655429D01*
X160432343Y-113655761D01*
X160458121Y-113656064D01*
X160488912Y-113656335D01*
X160524443Y-113656574D01*
X160564441Y-113656777D01*
X160608631Y-113656943D01*
X160656742Y-113657070D01*
X160708498Y-113657156D01*
X160763628Y-113657199D01*
X160783601Y-113657203D01*
X161183433Y-113657234D01*
X161199610Y-113664767D01*
X161217133Y-113676270D01*
X161230775Y-113692117D01*
X161240209Y-113711353D01*
X161245106Y-113733021D01*
X161245136Y-113756167D01*
X161239972Y-113779833D01*
X161239574Y-113781005D01*
X161229613Y-113800414D01*
X161214572Y-113816924D01*
X161199384Y-113827327D01*
X161186624Y-113834225D01*
X160666768Y-113835061D01*
X160597967Y-113835178D01*
X160535254Y-113835289D01*
X160478339Y-113835385D01*
X160426931Y-113835454D01*
X160380736Y-113835486D01*
X160339465Y-113835469D01*
X160302826Y-113835393D01*
X160270527Y-113835247D01*
X160242277Y-113835021D01*
X160217784Y-113834702D01*
X160196758Y-113834282D01*
X160178906Y-113833748D01*
X160163937Y-113833089D01*
X160151561Y-113832296D01*
X160141484Y-113831358D01*
X160133417Y-113830262D01*
X160127067Y-113828999D01*
X160122143Y-113827558D01*
X160118354Y-113825928D01*
X160115409Y-113824098D01*
X160113015Y-113822057D01*
X160110881Y-113819795D01*
X160108717Y-113817300D01*
X160106230Y-113814562D01*
X160105905Y-113814226D01*
X160097907Y-113804636D01*
X160091240Y-113794306D01*
X160089367Y-113790463D01*
X160085856Y-113776807D01*
X160084576Y-113759874D01*
X160085506Y-113742357D01*
X160088626Y-113726950D01*
X160089868Y-113723432D01*
X160093798Y-113716527D01*
X160101495Y-113705612D01*
X160112423Y-113691387D01*
X160126041Y-113674549D01*
X160141811Y-113655796D01*
X160144737Y-113652387D01*
X160154139Y-113641472D01*
X160167325Y-113626178D01*
X160183907Y-113606954D01*
X160203497Y-113584250D01*
X160225707Y-113558515D01*
X160250149Y-113530197D01*
X160276437Y-113499747D01*
X160304181Y-113467613D01*
X160332995Y-113434244D01*
X160362490Y-113400091D01*
X160392279Y-113365601D01*
X160393709Y-113363946D01*
X160423802Y-113329106D01*
X160453832Y-113294336D01*
X160483387Y-113260114D01*
X160512056Y-113226915D01*
X160539427Y-113195218D01*
X160565089Y-113165497D01*
X160588630Y-113138231D01*
X160609638Y-113113896D01*
X160627702Y-113092969D01*
X160642410Y-113075926D01*
X160653168Y-113063454D01*
X160713081Y-112993981D01*
X160643598Y-112913327D01*
X160627403Y-112894509D01*
X160607807Y-112871706D01*
X160585552Y-112845784D01*
X160561381Y-112817609D01*
X160536037Y-112788047D01*
X160510262Y-112757964D01*
X160484799Y-112728226D01*
X160460391Y-112699699D01*
X160459269Y-112698387D01*
X160429331Y-112663393D01*
X160398897Y-112627838D01*
X160368280Y-112592090D01*
X160337796Y-112556516D01*
X160307760Y-112521481D01*
X160278487Y-112487353D01*
X160250291Y-112454499D01*
X160223489Y-112423285D01*
X160198394Y-112394079D01*
X160175322Y-112367246D01*
X160154588Y-112343154D01*
X160136507Y-112322169D01*
X160121394Y-112304659D01*
X160109564Y-112290990D01*
X160101332Y-112281528D01*
X160097723Y-112277431D01*
X160084462Y-112260512D01*
X160076248Y-112244514D01*
X160072332Y-112227692D01*
X160071735Y-112216797D01*
X160073984Y-112192017D01*
X160080954Y-112171514D01*
X160092689Y-112155240D01*
X160109232Y-112143150D01*
X160130623Y-112135198D01*
X160150197Y-112131890D01*
X160174407Y-112130791D01*
X160194274Y-112133058D01*
G37*
G36*
X160836473Y-112102075D02*
G01*
X160857086Y-112107286D01*
X160876359Y-112117721D01*
X160891716Y-112131648D01*
X160903854Y-112149906D01*
X160911105Y-112170705D01*
X160913270Y-112192552D01*
X160910153Y-112213954D01*
X160904483Y-112228339D01*
X160897874Y-112241018D01*
X160956115Y-112309541D01*
X160971445Y-112327722D01*
X160985539Y-112344715D01*
X160997825Y-112359805D01*
X161007725Y-112372277D01*
X161014667Y-112381416D01*
X161018076Y-112386508D01*
X161018199Y-112386765D01*
X161019356Y-112391674D01*
X161020296Y-112400905D01*
X161021032Y-112414832D01*
X161021578Y-112433830D01*
X161021945Y-112458274D01*
X161022145Y-112488537D01*
X161022187Y-112505727D01*
X161022331Y-112615987D01*
X161088185Y-112687565D01*
X161117371Y-112719296D01*
X161142535Y-112746679D01*
X161163984Y-112770058D01*
X161182024Y-112789773D01*
X161196960Y-112806166D01*
X161209098Y-112819580D01*
X161218745Y-112830357D01*
X161226205Y-112838838D01*
X161231786Y-112845365D01*
X161235792Y-112850280D01*
X161238530Y-112853926D01*
X161240304Y-112856643D01*
X161241423Y-112858774D01*
X161241510Y-112858968D01*
X161244311Y-112869619D01*
X161245312Y-112883027D01*
X161244511Y-112896327D01*
X161241906Y-112906659D01*
X161241544Y-112907423D01*
X161239052Y-112911778D01*
X161235996Y-112915259D01*
X161231684Y-112917963D01*
X161225422Y-112919989D01*
X161216517Y-112921436D01*
X161204276Y-112922400D01*
X161188006Y-112922979D01*
X161167014Y-112923273D01*
X161140607Y-112923378D01*
X161128611Y-112923390D01*
X161104502Y-112923302D01*
X161082174Y-112923033D01*
X161062509Y-112922606D01*
X161046387Y-112922047D01*
X161034690Y-112921383D01*
X161028299Y-112920638D01*
X161027696Y-112920467D01*
X161023213Y-112917241D01*
X161015315Y-112909998D01*
X161004788Y-112899523D01*
X160992418Y-112886601D01*
X160978990Y-112872017D01*
X160977243Y-112870079D01*
X160964033Y-112855408D01*
X160947515Y-112837092D01*
X160928664Y-112816212D01*
X160908460Y-112793850D01*
X160887878Y-112771089D01*
X160867896Y-112749010D01*
X160862823Y-112743407D01*
X160845232Y-112723960D01*
X160828623Y-112705550D01*
X160813583Y-112688835D01*
X160800701Y-112674468D01*
X160790565Y-112663107D01*
X160783763Y-112655405D01*
X160781474Y-112652751D01*
X160771904Y-112641349D01*
X160770929Y-112575237D01*
X160769954Y-112509124D01*
X160753383Y-112490370D01*
X160747646Y-112483826D01*
X160738290Y-112473093D01*
X160725869Y-112458808D01*
X160710936Y-112441607D01*
X160694044Y-112422130D01*
X160675747Y-112401013D01*
X160656597Y-112378893D01*
X160650678Y-112372052D01*
X160564544Y-112272487D01*
X160551783Y-112274959D01*
X160526643Y-112277113D01*
X160523894Y-112276724D01*
X160503549Y-112273841D01*
X160483124Y-112265621D01*
X160465995Y-112252932D01*
X160452785Y-112236254D01*
X160444120Y-112216065D01*
X160440625Y-112192845D01*
X160440609Y-112191684D01*
X160484041Y-112191684D01*
X160488050Y-112206751D01*
X160497657Y-112219902D01*
X160510491Y-112229641D01*
X160523894Y-112233248D01*
X160538802Y-112230890D01*
X160545170Y-112228415D01*
X160558647Y-112219381D01*
X160567323Y-112207060D01*
X160570903Y-112192682D01*
X160569092Y-112177478D01*
X160561593Y-112162679D01*
X160561120Y-112162047D01*
X160549928Y-112151969D01*
X160536485Y-112146881D01*
X160522179Y-112146532D01*
X160508397Y-112150668D01*
X160496524Y-112159038D01*
X160487947Y-112171390D01*
X160486282Y-112175658D01*
X160484041Y-112191684D01*
X160440609Y-112191684D01*
X160440583Y-112189702D01*
X160443475Y-112165785D01*
X160451685Y-112144841D01*
X160464631Y-112127452D01*
X160481730Y-112114201D01*
X160502399Y-112105669D01*
X160526058Y-112102440D01*
X160527857Y-112102427D01*
X160551932Y-112105291D01*
X160572991Y-112113621D01*
X160590596Y-112127140D01*
X160604310Y-112145574D01*
X160607960Y-112152806D01*
X160612157Y-112167225D01*
X160613943Y-112184954D01*
X160613325Y-112203397D01*
X160610309Y-112219958D01*
X160607765Y-112227034D01*
X160601678Y-112240441D01*
X160618203Y-112259162D01*
X160627013Y-112269204D01*
X160638439Y-112282310D01*
X160650936Y-112296708D01*
X160661843Y-112309326D01*
X160672560Y-112321730D01*
X160686292Y-112337592D01*
X160701862Y-112355555D01*
X160718098Y-112374263D01*
X160733822Y-112392362D01*
X160734932Y-112393638D01*
X160749652Y-112410569D01*
X160764111Y-112427204D01*
X160777378Y-112442470D01*
X160788521Y-112455296D01*
X160796611Y-112464612D01*
X160797870Y-112466064D01*
X160806370Y-112476448D01*
X160813420Y-112486129D01*
X160817707Y-112493281D01*
X160818094Y-112494185D01*
X160819132Y-112500046D01*
X160820032Y-112511123D01*
X160820738Y-112526253D01*
X160821196Y-112544273D01*
X160821351Y-112563157D01*
X160821351Y-112623562D01*
X160858835Y-112664562D01*
X160870346Y-112677191D01*
X160885259Y-112693613D01*
X160902714Y-112712877D01*
X160921848Y-112734030D01*
X160941800Y-112756119D01*
X160961707Y-112778193D01*
X160971288Y-112788829D01*
X161046257Y-112872097D01*
X161117885Y-112872246D01*
X161189513Y-112872394D01*
X161178257Y-112860431D01*
X161173000Y-112854769D01*
X161164051Y-112845043D01*
X161152003Y-112831906D01*
X161137452Y-112816009D01*
X161120992Y-112798005D01*
X161103217Y-112778545D01*
X161084723Y-112758281D01*
X161066105Y-112737865D01*
X161047956Y-112717950D01*
X161030871Y-112699187D01*
X161015446Y-112682228D01*
X161002275Y-112667725D01*
X160991953Y-112656329D01*
X160985073Y-112648694D01*
X160983251Y-112646649D01*
X160971288Y-112633114D01*
X160971283Y-112519076D01*
X160971277Y-112405037D01*
X160921471Y-112346019D01*
X160907235Y-112329131D01*
X160894102Y-112313517D01*
X160882721Y-112299952D01*
X160873743Y-112289211D01*
X160867818Y-112282070D01*
X160865928Y-112279747D01*
X160861960Y-112275516D01*
X160857588Y-112273980D01*
X160850553Y-112274736D01*
X160844758Y-112275977D01*
X160828623Y-112277401D01*
X160821912Y-112277993D01*
X160799684Y-112273848D01*
X160778860Y-112263758D01*
X160766816Y-112254447D01*
X160753314Y-112239551D01*
X160744614Y-112222956D01*
X160739971Y-112203031D01*
X160739076Y-112193656D01*
X160739054Y-112193138D01*
X160783510Y-112193138D01*
X160787220Y-112207258D01*
X160795364Y-112219590D01*
X160807723Y-112228801D01*
X160813913Y-112231351D01*
X160828623Y-112233326D01*
X160842067Y-112229985D01*
X160853493Y-112222374D01*
X160862149Y-112211535D01*
X160867284Y-112198513D01*
X160868144Y-112184352D01*
X160863979Y-112170096D01*
X160861342Y-112165502D01*
X160850621Y-112154300D01*
X160837067Y-112147670D01*
X160822292Y-112145936D01*
X160807909Y-112149424D01*
X160801163Y-112153378D01*
X160790264Y-112164865D01*
X160784452Y-112178562D01*
X160783510Y-112193138D01*
X160739054Y-112193138D01*
X160738536Y-112180699D01*
X160739340Y-112171173D01*
X160742057Y-112162176D01*
X160747257Y-112150806D01*
X160747656Y-112149994D01*
X160760247Y-112130963D01*
X160776406Y-112116531D01*
X160795151Y-112106822D01*
X160815501Y-112101962D01*
X160836473Y-112102075D01*
G37*
G36*
X161145738Y-112105408D02*
G01*
X161166426Y-112113853D01*
X161183832Y-112127115D01*
X161197267Y-112144558D01*
X161206043Y-112165544D01*
X161209092Y-112182512D01*
X161208985Y-112200469D01*
X161204750Y-112217621D01*
X161204701Y-112217759D01*
X161194180Y-112239193D01*
X161179307Y-112256150D01*
X161162447Y-112267737D01*
X161151506Y-112273099D01*
X161141797Y-112275931D01*
X161130302Y-112276935D01*
X161122820Y-112276971D01*
X161120460Y-112276770D01*
X161102490Y-112275237D01*
X161085696Y-112269909D01*
X161070219Y-112260144D01*
X161063501Y-112254447D01*
X161048919Y-112237744D01*
X161039832Y-112218558D01*
X161035831Y-112197035D01*
X161035873Y-112184773D01*
X161080127Y-112184773D01*
X161081412Y-112199034D01*
X161087287Y-112212470D01*
X161097718Y-112223802D01*
X161106253Y-112229110D01*
X161120460Y-112233089D01*
X161133959Y-112231648D01*
X161145965Y-112225744D01*
X161155694Y-112216337D01*
X161162361Y-112204386D01*
X161165181Y-112190850D01*
X161163369Y-112176687D01*
X161158155Y-112165698D01*
X161147197Y-112154231D01*
X161133326Y-112147527D01*
X161118133Y-112146053D01*
X161104150Y-112149815D01*
X161091462Y-112158885D01*
X161083466Y-112170964D01*
X161080127Y-112184773D01*
X161035873Y-112184773D01*
X161035904Y-112175499D01*
X161040349Y-112157298D01*
X161049775Y-112140615D01*
X161058038Y-112130618D01*
X161074365Y-112115909D01*
X161091903Y-112106859D01*
X161112184Y-112102795D01*
X161122454Y-112102415D01*
X161145738Y-112105408D01*
G37*
D12*
%TO.C,J1*%
X134340000Y-80680000D02*
X144740000Y-80680000D01*
X134340000Y-83700000D02*
X144740000Y-83700000D01*
X134340000Y-88600000D02*
X144740000Y-88600000D01*
X134340000Y-90100000D02*
X144740000Y-90100000D01*
X134340000Y-90720000D02*
X134340000Y-80680000D01*
X136700000Y-90720000D02*
X134340000Y-90720000D01*
X144740000Y-80680000D02*
X144740000Y-90720000D01*
X144740000Y-90720000D02*
X137300000Y-90720000D01*
X137440000Y-91330000D02*
X136560000Y-91330000D01*
X137000000Y-90720000D01*
X137440000Y-91330000D01*
G36*
X137440000Y-91330000D02*
G01*
X136560000Y-91330000D01*
X137000000Y-90720000D01*
X137440000Y-91330000D01*
G37*
%TO.C,U1*%
X133890000Y-108690000D02*
X144110000Y-108690000D01*
X133890000Y-110070000D02*
X144110000Y-110070000D01*
X133890000Y-113310000D02*
X133890000Y-108690000D01*
X137150000Y-108690000D02*
X137150000Y-110070000D01*
X140850000Y-108690000D02*
X140850000Y-110070000D01*
X144110000Y-108690000D02*
X144110000Y-113310000D01*
X144110000Y-113310000D02*
X133890000Y-113310000D01*
%TO.C,J2*%
X134340000Y-94680000D02*
X144740000Y-94680000D01*
X134340000Y-97700000D02*
X144740000Y-97700000D01*
X134340000Y-102600000D02*
X144740000Y-102600000D01*
X134340000Y-104100000D02*
X144740000Y-104100000D01*
X134340000Y-104720000D02*
X134340000Y-94680000D01*
X136700000Y-104720000D02*
X134340000Y-104720000D01*
X144740000Y-94680000D02*
X144740000Y-104720000D01*
X144740000Y-104720000D02*
X137300000Y-104720000D01*
X137440000Y-105330000D02*
X136560000Y-105330000D01*
X137000000Y-104720000D01*
X137440000Y-105330000D01*
G36*
X137440000Y-105330000D02*
G01*
X136560000Y-105330000D01*
X137000000Y-104720000D01*
X137440000Y-105330000D01*
G37*
%TO.C,D1*%
X150045513Y-82816243D02*
G75*
G02*
X151650000Y-81150000I4454487J-2683757D01*
G01*
X150750000Y-88200000D02*
G75*
G02*
X150670569Y-82913891I3750000J2700000D01*
G01*
X151900000Y-81700000D02*
G75*
G02*
X157254731Y-81810629I2600000J-3800000D01*
G01*
X157250000Y-89200000D02*
G75*
G02*
X152008533Y-89378800I-2750000J3700000D01*
G01*
X158350000Y-82950000D02*
G75*
G02*
X158247584Y-88198261I-3850000J-2550000D01*
G01*
%TO.C,C3*%
X151880000Y-110630000D02*
X157120000Y-110630000D01*
X151880000Y-110967000D02*
X151880000Y-110630000D01*
X151880000Y-113370000D02*
X151880000Y-113033000D01*
X157120000Y-110630000D02*
X157120000Y-110967000D01*
X157120000Y-113033000D02*
X157120000Y-113370000D01*
X157120000Y-113370000D02*
X151880000Y-113370000D01*
%TO.C,C2*%
X151880000Y-105630000D02*
X157120000Y-105630000D01*
X151880000Y-105967000D02*
X151880000Y-105630000D01*
X151880000Y-108370000D02*
X151880000Y-108033000D01*
X157120000Y-105630000D02*
X157120000Y-105967000D01*
X157120000Y-108033000D02*
X157120000Y-108370000D01*
X157120000Y-108370000D02*
X151880000Y-108370000D01*
%TO.C,C1*%
X149020354Y-95125000D02*
X150020354Y-95125000D01*
X149520354Y-94625000D02*
X149520354Y-95625000D01*
X154500000Y-92920000D02*
X154500000Y-103080000D01*
X154540000Y-92920000D02*
X154540000Y-103080000D01*
X154580000Y-92921000D02*
X154580000Y-103079000D01*
X154620000Y-92921000D02*
X154620000Y-103079000D01*
X154660000Y-92923000D02*
X154660000Y-103077000D01*
X154700000Y-92924000D02*
X154700000Y-103076000D01*
X154740000Y-92926000D02*
X154740000Y-103074000D01*
X154780000Y-92928000D02*
X154780000Y-103072000D01*
X154820000Y-92930000D02*
X154820000Y-103070000D01*
X154860000Y-92933000D02*
X154860000Y-103067000D01*
X154900000Y-92936000D02*
X154900000Y-103064000D01*
X154940000Y-92939000D02*
X154940000Y-103061000D01*
X154980000Y-92943000D02*
X154980000Y-103057000D01*
X155020000Y-92946000D02*
X155020000Y-103054000D01*
X155060000Y-92951000D02*
X155060000Y-103049000D01*
X155100000Y-92955000D02*
X155100000Y-103045000D01*
X155140000Y-92960000D02*
X155140000Y-103040000D01*
X155180000Y-92965000D02*
X155180000Y-103035000D01*
X155220000Y-92971000D02*
X155220000Y-103029000D01*
X155260000Y-92977000D02*
X155260000Y-103023000D01*
X155300000Y-92983000D02*
X155300000Y-103017000D01*
X155340000Y-92989000D02*
X155340000Y-103011000D01*
X155380000Y-92996000D02*
X155380000Y-103004000D01*
X155420000Y-93003000D02*
X155420000Y-102997000D01*
X155460000Y-93011000D02*
X155460000Y-102989000D01*
X155500000Y-93019000D02*
X155500000Y-102981000D01*
X155540000Y-93027000D02*
X155540000Y-102973000D01*
X155580000Y-93035000D02*
X155580000Y-102965000D01*
X155620000Y-93044000D02*
X155620000Y-102956000D01*
X155660000Y-93053000D02*
X155660000Y-102947000D01*
X155700000Y-93063000D02*
X155700000Y-102937000D01*
X155740000Y-93072000D02*
X155740000Y-102928000D01*
X155780000Y-93083000D02*
X155780000Y-96760000D01*
X155780000Y-99240000D02*
X155780000Y-102917000D01*
X155820000Y-93093000D02*
X155820000Y-96760000D01*
X155820000Y-99240000D02*
X155820000Y-102907000D01*
X155860000Y-93104000D02*
X155860000Y-96760000D01*
X155860000Y-99240000D02*
X155860000Y-102896000D01*
X155900000Y-93115000D02*
X155900000Y-96760000D01*
X155900000Y-99240000D02*
X155900000Y-102885000D01*
X155940000Y-93127000D02*
X155940000Y-96760000D01*
X155940000Y-99240000D02*
X155940000Y-102873000D01*
X155980000Y-93139000D02*
X155980000Y-96760000D01*
X155980000Y-99240000D02*
X155980000Y-102861000D01*
X156020000Y-93151000D02*
X156020000Y-96760000D01*
X156020000Y-99240000D02*
X156020000Y-102849000D01*
X156060000Y-93163000D02*
X156060000Y-96760000D01*
X156060000Y-99240000D02*
X156060000Y-102837000D01*
X156100000Y-93176000D02*
X156100000Y-96760000D01*
X156100000Y-99240000D02*
X156100000Y-102824000D01*
X156140000Y-93190000D02*
X156140000Y-96760000D01*
X156140000Y-99240000D02*
X156140000Y-102810000D01*
X156180000Y-93203000D02*
X156180000Y-96760000D01*
X156180000Y-99240000D02*
X156180000Y-102797000D01*
X156220000Y-93218000D02*
X156220000Y-96760000D01*
X156220000Y-99240000D02*
X156220000Y-102782000D01*
X156260000Y-93232000D02*
X156260000Y-96760000D01*
X156260000Y-99240000D02*
X156260000Y-102768000D01*
X156300000Y-93247000D02*
X156300000Y-96760000D01*
X156300000Y-99240000D02*
X156300000Y-102753000D01*
X156340000Y-93262000D02*
X156340000Y-96760000D01*
X156340000Y-99240000D02*
X156340000Y-102738000D01*
X156380000Y-93278000D02*
X156380000Y-96760000D01*
X156380000Y-99240000D02*
X156380000Y-102722000D01*
X156420000Y-93294000D02*
X156420000Y-96760000D01*
X156420000Y-99240000D02*
X156420000Y-102706000D01*
X156460000Y-93310000D02*
X156460000Y-96760000D01*
X156460000Y-99240000D02*
X156460000Y-102690000D01*
X156500000Y-93327000D02*
X156500000Y-96760000D01*
X156500000Y-99240000D02*
X156500000Y-102673000D01*
X156540000Y-93344000D02*
X156540000Y-96760000D01*
X156540000Y-99240000D02*
X156540000Y-102656000D01*
X156580000Y-93362000D02*
X156580000Y-96760000D01*
X156580000Y-99240000D02*
X156580000Y-102638000D01*
X156620000Y-93380000D02*
X156620000Y-96760000D01*
X156620000Y-99240000D02*
X156620000Y-102620000D01*
X156660000Y-93398000D02*
X156660000Y-96760000D01*
X156660000Y-99240000D02*
X156660000Y-102602000D01*
X156700000Y-93417000D02*
X156700000Y-96760000D01*
X156700000Y-99240000D02*
X156700000Y-102583000D01*
X156740000Y-93436000D02*
X156740000Y-96760000D01*
X156740000Y-99240000D02*
X156740000Y-102564000D01*
X156780000Y-93456000D02*
X156780000Y-96760000D01*
X156780000Y-99240000D02*
X156780000Y-102544000D01*
X156820000Y-93476000D02*
X156820000Y-96760000D01*
X156820000Y-99240000D02*
X156820000Y-102524000D01*
X156860000Y-93496000D02*
X156860000Y-96760000D01*
X156860000Y-99240000D02*
X156860000Y-102504000D01*
X156900000Y-93517000D02*
X156900000Y-96760000D01*
X156900000Y-99240000D02*
X156900000Y-102483000D01*
X156940000Y-93539000D02*
X156940000Y-96760000D01*
X156940000Y-99240000D02*
X156940000Y-102461000D01*
X156980000Y-93561000D02*
X156980000Y-96760000D01*
X156980000Y-99240000D02*
X156980000Y-102439000D01*
X157020000Y-93583000D02*
X157020000Y-96760000D01*
X157020000Y-99240000D02*
X157020000Y-102417000D01*
X157060000Y-93606000D02*
X157060000Y-96760000D01*
X157060000Y-99240000D02*
X157060000Y-102394000D01*
X157100000Y-93629000D02*
X157100000Y-96760000D01*
X157100000Y-99240000D02*
X157100000Y-102371000D01*
X157140000Y-93653000D02*
X157140000Y-96760000D01*
X157140000Y-99240000D02*
X157140000Y-102347000D01*
X157180000Y-93677000D02*
X157180000Y-96760000D01*
X157180000Y-99240000D02*
X157180000Y-102323000D01*
X157220000Y-93702000D02*
X157220000Y-96760000D01*
X157220000Y-99240000D02*
X157220000Y-102298000D01*
X157260000Y-93728000D02*
X157260000Y-96760000D01*
X157260000Y-99240000D02*
X157260000Y-102272000D01*
X157300000Y-93753000D02*
X157300000Y-96760000D01*
X157300000Y-99240000D02*
X157300000Y-102247000D01*
X157340000Y-93780000D02*
X157340000Y-96760000D01*
X157340000Y-99240000D02*
X157340000Y-102220000D01*
X157380000Y-93807000D02*
X157380000Y-96760000D01*
X157380000Y-99240000D02*
X157380000Y-102193000D01*
X157420000Y-93834000D02*
X157420000Y-96760000D01*
X157420000Y-99240000D02*
X157420000Y-102166000D01*
X157460000Y-93862000D02*
X157460000Y-96760000D01*
X157460000Y-99240000D02*
X157460000Y-102138000D01*
X157500000Y-93891000D02*
X157500000Y-96760000D01*
X157500000Y-99240000D02*
X157500000Y-102109000D01*
X157540000Y-93920000D02*
X157540000Y-96760000D01*
X157540000Y-99240000D02*
X157540000Y-102080000D01*
X157580000Y-93950000D02*
X157580000Y-96760000D01*
X157580000Y-99240000D02*
X157580000Y-102050000D01*
X157620000Y-93980000D02*
X157620000Y-96760000D01*
X157620000Y-99240000D02*
X157620000Y-102020000D01*
X157660000Y-94012000D02*
X157660000Y-96760000D01*
X157660000Y-99240000D02*
X157660000Y-101988000D01*
X157700000Y-94043000D02*
X157700000Y-96760000D01*
X157700000Y-99240000D02*
X157700000Y-101957000D01*
X157740000Y-94076000D02*
X157740000Y-96760000D01*
X157740000Y-99240000D02*
X157740000Y-101924000D01*
X157780000Y-94109000D02*
X157780000Y-96760000D01*
X157780000Y-99240000D02*
X157780000Y-101891000D01*
X157820000Y-94142000D02*
X157820000Y-96760000D01*
X157820000Y-99240000D02*
X157820000Y-101858000D01*
X157860000Y-94177000D02*
X157860000Y-96760000D01*
X157860000Y-99240000D02*
X157860000Y-101823000D01*
X157900000Y-94212000D02*
X157900000Y-96760000D01*
X157900000Y-99240000D02*
X157900000Y-101788000D01*
X157940000Y-94248000D02*
X157940000Y-96760000D01*
X157940000Y-99240000D02*
X157940000Y-101752000D01*
X157980000Y-94284000D02*
X157980000Y-96760000D01*
X157980000Y-99240000D02*
X157980000Y-101716000D01*
X158020000Y-94322000D02*
X158020000Y-96760000D01*
X158020000Y-99240000D02*
X158020000Y-101678000D01*
X158060000Y-94360000D02*
X158060000Y-96760000D01*
X158060000Y-99240000D02*
X158060000Y-101640000D01*
X158100000Y-94399000D02*
X158100000Y-96760000D01*
X158100000Y-99240000D02*
X158100000Y-101601000D01*
X158140000Y-94439000D02*
X158140000Y-96760000D01*
X158140000Y-99240000D02*
X158140000Y-101561000D01*
X158180000Y-94480000D02*
X158180000Y-96760000D01*
X158180000Y-99240000D02*
X158180000Y-101520000D01*
X158220000Y-94522000D02*
X158220000Y-96760000D01*
X158220000Y-99240000D02*
X158220000Y-101478000D01*
X158260000Y-94565000D02*
X158260000Y-101435000D01*
X158300000Y-94609000D02*
X158300000Y-101391000D01*
X158340000Y-94653000D02*
X158340000Y-101347000D01*
X158380000Y-94699000D02*
X158380000Y-101301000D01*
X158420000Y-94746000D02*
X158420000Y-101254000D01*
X158460000Y-94795000D02*
X158460000Y-101205000D01*
X158500000Y-94844000D02*
X158500000Y-101156000D01*
X158540000Y-94895000D02*
X158540000Y-101105000D01*
X158580000Y-94947000D02*
X158580000Y-101053000D01*
X158620000Y-95000000D02*
X158620000Y-101000000D01*
X158660000Y-95055000D02*
X158660000Y-100945000D01*
X158700000Y-95112000D02*
X158700000Y-100888000D01*
X158740000Y-95170000D02*
X158740000Y-100830000D01*
X158780000Y-95230000D02*
X158780000Y-100770000D01*
X158820000Y-95292000D02*
X158820000Y-100708000D01*
X158860000Y-95356000D02*
X158860000Y-100644000D01*
X158900000Y-95422000D02*
X158900000Y-100578000D01*
X158940000Y-95490000D02*
X158940000Y-100510000D01*
X158980000Y-95561000D02*
X158980000Y-100439000D01*
X159020000Y-95635000D02*
X159020000Y-100365000D01*
X159060000Y-95712000D02*
X159060000Y-100288000D01*
X159100000Y-95792000D02*
X159100000Y-100208000D01*
X159140000Y-95876000D02*
X159140000Y-100124000D01*
X159180000Y-95963000D02*
X159180000Y-100037000D01*
X159220000Y-96056000D02*
X159220000Y-99944000D01*
X159260000Y-96154000D02*
X159260000Y-99846000D01*
X159300000Y-96258000D02*
X159300000Y-99742000D01*
X159340000Y-96370000D02*
X159340000Y-99630000D01*
X159380000Y-96491000D02*
X159380000Y-99509000D01*
X159420000Y-96623000D02*
X159420000Y-99377000D01*
X159460000Y-96770000D02*
X159460000Y-99230000D01*
X159500000Y-96938000D02*
X159500000Y-99062000D01*
X159540000Y-97138000D02*
X159540000Y-98862000D01*
X159580000Y-97401000D02*
X159580000Y-98599000D01*
X159620000Y-98000000D02*
G75*
G02*
X149380000Y-98000000I-5120000J0D01*
G01*
X149380000Y-98000000D02*
G75*
G02*
X159620000Y-98000000I5120000J0D01*
G01*
%TD*%
M02*
