%TF.GenerationSoftware,KiCad,Pcbnew,9.0.7*%
%TF.CreationDate,2026-07-03T22:48:02+05:30*%
%TF.ProjectId,Single-Sided 5V Power Supply,53696e67-6c65-42d5-9369-646564203556,rev?*%
%TF.SameCoordinates,Original*%
%TF.FileFunction,Copper,L1,Top*%
%TF.FilePolarity,Positive*%
%FSLAX46Y46*%
G04 Gerber Fmt 4.6, Leading zero omitted, Abs format (unit mm)*
G04 Created by KiCad (PCBNEW 9.0.7) date 2026-07-03 22:48:02*
%MOMM*%
%LPD*%
G01*
G04 APERTURE LIST*
G04 Aperture macros list*
%AMRoundRect*
0 Rectangle with rounded corners*
0 $1 Rounding radius*
0 $2 $3 $4 $5 $6 $7 $8 $9 X,Y pos of 4 corners*
0 Add a 4 corners polygon primitive as box body*
4,1,4,$2,$3,$4,$5,$6,$7,$8,$9,$2,$3,0*
0 Add four circle primitives for the rounded corners*
1,1,$1+$1,$2,$3*
1,1,$1+$1,$4,$5*
1,1,$1+$1,$6,$7*
1,1,$1+$1,$8,$9*
0 Add four rect primitives between the rounded corners*
20,1,$1+$1,$2,$3,$4,$5,0*
20,1,$1+$1,$4,$5,$6,$7,0*
20,1,$1+$1,$6,$7,$8,$9,0*
20,1,$1+$1,$8,$9,$2,$3,0*%
G04 Aperture macros list end*
%TA.AperFunction,ComponentPad*%
%ADD10RoundRect,0.250000X-1.050000X-1.050000X1.050000X-1.050000X1.050000X1.050000X-1.050000X1.050000X0*%
%TD*%
%TA.AperFunction,ComponentPad*%
%ADD11C,2.600000*%
%TD*%
%TA.AperFunction,ComponentPad*%
%ADD12R,1.905000X2.000000*%
%TD*%
%TA.AperFunction,ComponentPad*%
%ADD13O,1.905000X2.000000*%
%TD*%
%TA.AperFunction,ComponentPad*%
%ADD14R,2.000000X2.000000*%
%TD*%
%TA.AperFunction,ComponentPad*%
%ADD15O,2.000000X2.000000*%
%TD*%
%TA.AperFunction,ComponentPad*%
%ADD16C,1.600000*%
%TD*%
%TA.AperFunction,ComponentPad*%
%ADD17RoundRect,0.250000X-0.750000X-0.750000X0.750000X-0.750000X0.750000X0.750000X-0.750000X0.750000X0*%
%TD*%
%TA.AperFunction,ComponentPad*%
%ADD18C,2.000000*%
%TD*%
%TA.AperFunction,Conductor*%
%ADD19C,0.200000*%
%TD*%
G04 APERTURE END LIST*
D10*
%TO.P,J1,1,Pin_1*%
%TO.N,/J1_3*%
X137000000Y-86000000D03*
D11*
%TO.P,J1,2,Pin_2*%
%TO.N,/J1_2*%
X142080000Y-86000000D03*
%TD*%
D12*
%TO.P,U1,1,IN*%
%TO.N,/D1+*%
X136460000Y-111950000D03*
D13*
%TO.P,U1,2,GND*%
%TO.N,GND*%
X139000000Y-111950000D03*
%TO.P,U1,3,OUT*%
%TO.N,/J2_1*%
X141540000Y-111950000D03*
%TD*%
D10*
%TO.P,J2,1,Pin_1*%
%TO.N,/J2_1*%
X137000000Y-100000000D03*
D11*
%TO.P,J2,2,Pin_2*%
%TO.N,GND*%
X142080000Y-100000000D03*
%TD*%
D14*
%TO.P,D1,1,+*%
%TO.N,/D1+*%
X152000000Y-83000000D03*
D15*
%TO.P,D1,2*%
%TO.N,/J1_2*%
X152000000Y-88000000D03*
%TO.P,D1,3*%
%TO.N,/J1_3*%
X157000000Y-88000000D03*
%TO.P,D1,4,-*%
%TO.N,GND*%
X157000000Y-83000000D03*
%TD*%
D16*
%TO.P,C3,1*%
%TO.N,/J2_1*%
X152000000Y-112000000D03*
%TO.P,C3,2*%
%TO.N,GND*%
X157000000Y-112000000D03*
%TD*%
%TO.P,C2,1*%
%TO.N,/D1+*%
X152000000Y-107000000D03*
%TO.P,C2,2*%
%TO.N,GND*%
X157000000Y-107000000D03*
%TD*%
D17*
%TO.P,C1,1*%
%TO.N,/D1+*%
X152000000Y-98000000D03*
D18*
%TO.P,C1,2*%
%TO.N,GND*%
X157000000Y-98000000D03*
%TD*%
D19*
%TO.N,GND*%
X141201993Y-99125280D02*
G75*
G02*
X141254041Y-99174360I-1039793J-1154820D01*
G01*
X136033105Y-108217328D02*
G75*
G02*
X135940485Y-107993726I7073395J3060928D01*
G01*
X136132702Y-108437910D02*
G75*
G03*
X136239180Y-108655256I6970098J3279910D01*
G01*
X136870847Y-109686043D02*
G75*
G02*
X136731681Y-109488030I6230753J4526943D01*
G01*
X135494316Y-106362814D02*
G75*
G03*
X135535928Y-106601237I7611684J1205614D01*
G01*
X159000000Y-97000000D02*
G75*
G02*
X158000000Y-98000000I-1000000J0D01*
G01*
X135585008Y-106838234D02*
G75*
G02*
X135535928Y-106601237I7516792J1680234D01*
G01*
X136352430Y-108869151D02*
G75*
G03*
X136472345Y-109079382I6750170J3710951D01*
G01*
X156500000Y-98500000D02*
G75*
G02*
X157707106Y-98000003I1207100J-1207100D01*
G01*
X157000000Y-98707106D02*
G75*
G03*
X156499988Y-98499988I-292900J6D01*
G01*
X157000000Y-98707106D02*
G75*
G02*
X157707106Y-98000000I707100J6D01*
G01*
X135460215Y-106123203D02*
G75*
G02*
X135433656Y-105882638I7637085J964903D01*
G01*
X137167490Y-110068472D02*
G75*
G02*
X137016164Y-109879587I5934210J4909272D01*
G01*
X135433656Y-105882638D02*
G75*
G02*
X135414668Y-105641358I7670644J725038D01*
G01*
X135705373Y-107307021D02*
G75*
G02*
X135641508Y-107073572I7393527J2148121D01*
G01*
X137167490Y-110068472D02*
G75*
G03*
X137324672Y-110252511I5933710J4908672D01*
G01*
X158000000Y-84000000D02*
G75*
G02*
X158999994Y-86414213I-2414200J-2414200D01*
G01*
X136352430Y-108869151D02*
G75*
G02*
X136239178Y-108655257I6750470J3711151D01*
G01*
X140523807Y-98000000D02*
G75*
G02*
X141000000Y-98476193I-7J-476200D01*
G01*
X141005505Y-98957891D02*
G75*
G02*
X141000001Y-98944600I13295J13291D01*
G01*
X137613033Y-110562701D02*
G75*
G02*
X137528985Y-110475632I3122367J3098101D01*
G01*
X141066619Y-99008427D02*
G75*
G02*
X141175405Y-99101340I-1719219J-2123073D01*
G01*
X135199500Y-104958106D02*
G75*
G02*
X135000011Y-104476470I481600J481606D01*
G01*
X135000000Y-99061509D02*
G75*
G02*
X136061509Y-98000000I1061500J9D01*
G01*
X136132702Y-108437910D02*
G75*
G02*
X136033104Y-108217328I6969598J3279710D01*
G01*
X137613033Y-110562701D02*
G75*
G03*
X137698447Y-110648447I22145067J21973901D01*
G01*
X137324673Y-110252510D02*
G75*
G03*
X137487559Y-110431520I5777427J5093410D01*
G01*
X135705373Y-107307021D02*
G75*
G03*
X135776539Y-107538347I7398927J2149621D01*
G01*
X141005505Y-98957891D02*
G75*
G03*
X141017059Y-98968296I105095J105091D01*
G01*
X136598803Y-109285743D02*
G75*
G02*
X136472344Y-109079382I6504697J4128043D01*
G01*
X135399232Y-105218120D02*
G75*
G03*
X135401366Y-105339118I4384268J16820D01*
G01*
X135399232Y-105218120D02*
G75*
G03*
X135356209Y-105114815I-146932J-580D01*
G01*
X135403266Y-105399602D02*
G75*
G03*
X135414668Y-105641358I7699834J242002D01*
G01*
X135585008Y-106838234D02*
G75*
G03*
X135641507Y-107073572I7521792J1681334D01*
G01*
X136598803Y-109285743D02*
G75*
G03*
X136731680Y-109488031I6502697J4126643D01*
G01*
X137016164Y-109879587D02*
G75*
G02*
X136870847Y-109686043I6087836J4722187D01*
G01*
X135494316Y-106362814D02*
G75*
G02*
X135460216Y-106123203I7605684J1204614D01*
G01*
X135854934Y-107767323D02*
G75*
G03*
X135940484Y-107993726I7247266J2609123D01*
G01*
X135854934Y-107767323D02*
G75*
G02*
X135776539Y-107538347I7252366J2610923D01*
G01*
X158000000Y-98000000D02*
X157707106Y-98000000D01*
X159000000Y-97000000D02*
X159000000Y-86414213D01*
X158000000Y-84000000D02*
X157000000Y-83000000D01*
%TO.N,/J1_3*%
X155000000Y-90000000D02*
X157000000Y-88000000D01*
X141000000Y-90000000D02*
X155000000Y-90000000D01*
X137000000Y-86000000D02*
X141000000Y-90000000D01*
%TO.N,GND*%
X137528985Y-110475632D02*
X137487560Y-110431519D01*
X135401365Y-105339118D02*
X135403266Y-105399602D01*
X137698447Y-110648447D02*
X139000000Y-111950000D01*
X135356209Y-105114815D02*
X135199500Y-104958106D01*
X141066619Y-99008427D02*
X141017060Y-98968295D01*
X141175405Y-99101340D02*
X141201993Y-99125280D01*
X141000000Y-98944600D02*
X141000000Y-98476193D01*
X140523807Y-98000000D02*
X136061509Y-98000000D01*
X141279500Y-99199500D02*
X141254041Y-99174360D01*
X135000000Y-99061509D02*
X135000000Y-104476470D01*
%TO.N,/J2_1*%
X141540000Y-105540000D02*
X141540000Y-111950000D01*
X137000000Y-101000000D02*
X141540000Y-105540000D01*
X137000000Y-100000000D02*
X137000000Y-101000000D01*
%TO.N,GND*%
X153047624Y-110967624D02*
X142880500Y-100800500D01*
X155540000Y-112000000D02*
X157000000Y-112000000D01*
X156500000Y-98500000D02*
X156000000Y-99000000D01*
X141279500Y-99199500D02*
X142880500Y-100800500D01*
X143212077Y-100000000D02*
X153585786Y-100000000D01*
X157000000Y-107000000D02*
X157000000Y-112000000D01*
X157000000Y-107000000D02*
X157000000Y-98707106D01*
X153585786Y-100000000D02*
G75*
G03*
X156000004Y-99000004I14J3414200D01*
G01*
X143212077Y-100000000D02*
G75*
G02*
X141279506Y-99199494I23J2733100D01*
G01*
X143212077Y-100000000D02*
G75*
G03*
X142880538Y-100800462I23J-468900D01*
G01*
X153047624Y-110967624D02*
G75*
G03*
X155540000Y-111999986I2492376J2492424D01*
G01*
%TO.N,/J2_1*%
X141540000Y-111950000D02*
X151950000Y-111950000D01*
X151950000Y-111950000D02*
X152000000Y-112000000D01*
%TO.N,/J1_2*%
X144080000Y-88000000D02*
X152000000Y-88000000D01*
X142080000Y-86000000D02*
X144080000Y-88000000D01*
%TD*%
M02*
